HIERARCHY
ROOT Hips
{
 OFFSET 0.000000 0.000000 0.000000
 CHANNELS 6 Xposition Yposition Zposition Yrotation Xrotation Zrotation
 JOINT Chest
 {
  OFFSET 0.000000 10.354800 0.006500
  CHANNELS 3 Yrotation Xrotation Zrotation
  JOINT Chest2
  {
   OFFSET 0.000000 10.435800 -0.013200
   CHANNELS 3 Yrotation Xrotation Zrotation
   JOINT Chest3
   {
    OFFSET 0.000000 10.393700 0.000000
    CHANNELS 3 Yrotation Xrotation Zrotation
    JOINT Chest4
    {
     OFFSET 0.000000 10.383100 0.000000
     CHANNELS 3 Yrotation Xrotation Zrotation
     JOINT Neck
     {
      OFFSET 0.000000 15.694000 0.000000
      CHANNELS 3 Yrotation Xrotation Zrotation
      JOINT Head
      {
       OFFSET 0.000000 9.711000 -0.028000
       CHANNELS 3 Yrotation Xrotation Zrotation
       End Site
       {
        OFFSET 0.000000 18.578700 -0.014800
       }
      }
     }
     JOINT RightCollar
     {
      OFFSET -3.157200 10.367500 0.000000
      CHANNELS 3 Yrotation Xrotation Zrotation
      JOINT RightShoulder
      {
       OFFSET -14.482500 0.000000 0.000000
       CHANNELS 3 Yrotation Xrotation Zrotation
       JOINT RightElbow
       {
        OFFSET 0.000000 -31.707800 0.000000
        CHANNELS 3 Yrotation Xrotation Zrotation
        JOINT RightWrist
        {
         OFFSET 0.000000 -25.659300 0.000000
         CHANNELS 3 Yrotation Xrotation Zrotation
         End Site
         {
          OFFSET 0.000000 -18.994300 0.000000
         }
        }
       }
      }
     }
     JOINT LeftCollar
     {
      OFFSET 3.157200 10.367500 0.000000
      CHANNELS 3 Yrotation Xrotation Zrotation
      JOINT LeftShoulder
      {
       OFFSET 14.482500 0.000000 0.000000
       CHANNELS 3 Yrotation Xrotation Zrotation
       JOINT LeftElbow
       {
        OFFSET 0.000000 -31.707800 0.000000
        CHANNELS 3 Yrotation Xrotation Zrotation
        JOINT LeftWrist
        {
         OFFSET 0.000000 -25.659300 0.000000
         CHANNELS 3 Yrotation Xrotation Zrotation
         End Site
         {
          OFFSET 0.000000 -18.994300 0.000000
         }
        }
       }
      }
     }
    }
   }
  }
 }
 JOINT RightHip
 {
  OFFSET -8.365600 -0.032100 -0.003200
  CHANNELS 3 Yrotation Xrotation Zrotation
  JOINT RightKnee
  {
   OFFSET 0.000000 -43.980000 0.003100
   CHANNELS 3 Yrotation Xrotation Zrotation
   JOINT RightAnkle
   {
    OFFSET 0.000000 -42.882800 0.005200
    CHANNELS 3 Yrotation Xrotation Zrotation
    JOINT RightToe
    {
     OFFSET 0.000000 -4.915500 10.826300
     CHANNELS 3 Yrotation Xrotation Zrotation
     End Site
     {
      OFFSET 0.000000 -1.517500 6.175900
     }
    }
   }
  }
 }
 JOINT LeftHip
 {
  OFFSET 8.365600 -0.032100 -0.003200
  CHANNELS 3 Yrotation Xrotation Zrotation
  JOINT LeftKnee
  {
   OFFSET 0.000000 -43.980000 0.003100
   CHANNELS 3 Yrotation Xrotation Zrotation
   JOINT LeftAnkle
   {
    OFFSET 0.000000 -42.882800 0.005200
    CHANNELS 3 Yrotation Xrotation Zrotation
    JOINT LeftToe
    {
     OFFSET 0.000000 -4.915500 10.826300
     CHANNELS 3 Yrotation Xrotation Zrotation
     End Site
     {
      OFFSET 0.000000 -1.517500 6.175900
     }
    }
   }
  }
 }
}
MOTION
Frames: 16
Frame Time: 0.008333
0.000000 91.618600 0.000000 0.000000 -5.767877 0.000000 0.000000 11.653817 0.000000 0.000000 -5.885947 0.000000 0.000000 -0.000000 0.000000 0.000000 -0.000000 0.000000 0.000000 12.528835 0.000000 0.000000 0.711642 0.000000 0.000000 -0.000000 0.000000 0.000000 0.000000 -90.000000 0.000000 -2.309062 0.000000 0.000000 2.309062 0.000000 0.000000 -0.000000 0.000000 0.000000 -0.000000 90.000000 0.000000 -2.309062 0.000000 0.000000 2.309062 0.000000 0.000000 8.520406 0.000000 0.000000 1.905762 0.000000 -0.000000 -4.658285 0.000000 0.000000 -0.000000 0.000000 0.000000 8.520406 0.000000 0.000000 1.905762 0.000000 -0.000000 -4.658285 0.000000 0.000000 -0.000000 0.000000
-0.937079 127.428449 42.600714 167.041000 -42.939562 -2.887342 3.718880 14.901173 3.725128 0.311411 1.444861 0.312341 0.527370 2.423901 0.528981 3.240988 13.307462 3.248978 -4.689879 24.938727 -1.055438 -4.878302 1.429756 -0.080442 -0.800147 9.514118 -9.324790 -33.413210 -21.113073 -15.905955 -132.350572 -43.851508 144.403161 -28.671551 -23.548589 -31.401255 9.957488 11.526405 8.510390 45.014353 -8.319958 4.690181 148.185867 -38.081628 -167.817413 27.154729 -20.798820 40.251899 2.727398 -39.267458 5.626654 -81.508470 79.569197 -74.426494 4.003858 7.196289 -20.145714 0.000791 0.012570 0.000359 -15.917478 -39.164986 2.736895 90.396729 85.380444 82.446890 -7.095413 -17.077821 -2.171777 -0.012591 0.012476 -0.005718
-0.940860 127.435201 42.601814 167.052638 -43.049099 -2.860218 3.804971 14.906424 3.694907 0.320105 1.442924 0.310303 0.541900 2.420640 0.525673 3.320688 13.290224 3.238322 -4.797461 25.006350 -0.965248 -4.934895 1.406524 -0.003727 -1.028664 9.546862 -9.327287 -33.800594 -21.214802 -15.691725 -132.405961 -44.231924 143.567026 -28.453592 -23.893983 -32.242202 10.130001 11.517184 8.689220 45.199557 -8.435529 4.829997 148.405916 -38.223266 -167.566790 26.894182 -21.301063 41.452517 2.753262 -39.158320 5.579889 -81.788965 79.541166 -74.699894 4.059610 7.151372 -20.152138 0.001531 0.029283 0.000695 -15.808966 -39.058241 2.683226 90.565316 85.401956 82.589424 -7.129019 -17.067201 -2.127948 -0.037559 0.013489 -0.017056
-0.942056 127.444475 42.603007 167.072732 -43.188406 -2.851700 3.887249 14.940477 3.674758 0.328556 1.442345 0.308107 0.556063 2.419664 0.522008 3.396838 13.279453 3.224333 -4.892327 25.064906 -0.866381 -4.986486 1.369226 0.087201 -1.237639 9.570998 -9.319555 -34.081860 -21.303517 -15.488705 -132.483996 -44.670126 142.724340 -28.161528 -24.182909 -33.200038 10.284779 11.506362 8.859901 45.406374 -8.505977 4.953690 148.534397 -38.314260 -167.429660 26.713855 -21.677793 42.429206 2.760644 -39.017550 5.558649 -81.950420 79.531268 -74.860262 4.076264 7.142869 -20.151154 -0.002719 0.017876 -0.001235 -15.712602 -38.911741 2.626161 90.563855 85.430524 82.586332 -7.172658 -17.050706 -2.112959 -0.037654 0.003741 -0.017097
-0.940751 127.448660 42.612389 167.090185 -43.293931 -2.864418 3.927580 14.992229 3.678422 0.380270 1.391393 0.289364 0.569525 2.420475 0.518243 3.468156 13.274140 3.208345 -4.884105 24.992210 -0.787207 -5.118695 1.451416 0.237988 -1.419096 9.589099 -9.305457 -34.356101 -21.385057 -15.289861 -132.512534 -45.137779 141.908783 -27.765606 -24.398026 -34.269771 10.418692 11.501025 9.017302 45.611890 -8.529392 5.058809 148.680755 -38.373931 -167.436342 26.612250 -21.890921 43.103679 2.748820 -38.911243 5.570517 -82.097787 79.519713 -75.010656 4.108425 7.134242 -20.154182 -0.001601 0.007932 -0.000727 -15.606972 -38.783832 2.617512 90.431638 85.486248 82.466093 -7.235728 -17.046043 -2.088374 -0.010600 0.004894 -0.004813
-0.942915 127.451729 42.623236 167.108735 -43.397706 -2.860513 4.019550 14.961682 3.655854 0.364550 1.418499 0.295816 0.581844 2.421941 0.514362 3.532587 13.271548 3.190867 -4.916066 24.962361 -0.698334 -5.211573 1.476921 0.360510 -1.570148 9.611322 -9.290216 -34.703599 -21.457106 -15.074167 -132.416041 -45.584226 141.154010 -27.264363 -24.520386 -35.400994 10.535006 11.511196 9.161233 45.793693 -8.509917 5.140233 148.913499 -38.415795 -167.590768 26.573328 -21.921738 43.424131 2.750678 -38.807274 5.565003 -82.248669 79.507678 -75.166594 4.113143 7.124032 -20.162058 -0.001317 0.009611 -0.000598 -15.544514 -38.672846 2.589977 90.367811 85.506809 82.389541 -7.262036 -17.026991 -2.078456 -0.011932 0.003192 -0.005418
-0.944148 127.448353 42.642297 167.120244 -43.453196 -2.866247 4.109750 14.884841 3.646903 0.350459 1.444838 0.301054 0.592607 2.423415 0.510316 3.588113 13.270241 3.172016 -4.968072 24.956191 -0.613492 -5.288718 1.473901 0.465095 -1.693795 9.645520 -9.276386 -35.112996 -21.491819 -14.851424 -132.188694 -45.949755 140.495985 -26.731596 -24.562731 -36.489820 10.638471 11.548935 9.299490 45.937287 -8.454183 5.189498 149.249564 -38.439318 -167.881019 26.575693 -21.797596 43.399195 2.747231 -38.755775 5.574054 -82.385040 79.499106 -75.310605 4.197528 7.115736 -20.177596 0.007734 0.011184 0.003512 -15.509374 -38.606636 2.607366 90.270796 85.525794 82.276741 -7.303913 -17.014809 -2.056719 -0.013007 0.004499 -0.005906
-0.947291 127.444756 42.661373 167.135575 -43.509745 -2.863072 4.172234 14.842094 3.631741 0.355943 1.446137 0.298770 0.601726 2.425386 0.506418 3.634429 13.271398 3.152961 -5.024101 24.950165 -0.541323 -5.367369 1.471311 0.556763 -1.798200 9.696385 -9.269295 -35.528978 -21.450293 -14.647432 -131.894575 -46.195134 139.977607 -26.281291 -24.557059 -37.404157 10.736393 11.615932 9.434583 46.026930 -8.366410 5.205378 149.669547 -38.429429 -168.291588 26.606588 -21.568027 43.078175 2.751471 -38.705988 5.574419 -82.552138 79.490097 -75.485315 4.156666 7.093627 -20.167630 0.004595 0.017369 0.002087 -15.475422 -38.541922 2.616911 90.145419 85.539753 82.128873 -7.347237 -16.997624 -2.036237 -0.011134 0.005150 -0.005056
-0.954190 127.454002 42.665255 167.194267 -43.670590 -2.848967 4.197103 14.915062 3.587350 0.341841 1.467937 0.300164 0.627810 2.408208 0.498742 3.671748 13.275500 3.134941 -5.084201 24.947769 -0.486296 -5.412770 1.507931 0.613751 -1.894886 9.761018 -9.231333 -35.870517 -21.324035 -14.525385 -131.628550 -46.314378 139.632412 -25.995734 -24.515800 -38.029760 10.838508 11.704123 9.561691 46.039047 -8.246127 5.201095 150.141656 -38.370416 -168.797481 26.660155 -21.280075 42.508782 2.757601 -38.545327 5.528475 -82.736260 79.488464 -75.679645 4.055597 7.071561 -20.143597 -0.005143 0.011467 -0.002336 -15.425412 -38.389329 2.523744 90.049088 85.529313 82.008093 -7.375860 -16.920173 -2.074798 -0.015379 0.001894 -0.006983
-0.962137 127.457875 42.674491 167.249328 -43.787529 -2.831053 4.217657 14.949494 3.544292 0.291297 1.530054 0.306792 0.687951 2.352558 0.485394 3.700764 13.282929 3.119351 -5.148161 24.952538 -0.451106 -5.452283 1.533093 0.668111 -2.002621 9.845353 -9.273989 -36.101427 -21.054089 -14.398064 -131.473314 -46.335858 139.470311 -25.902252 -24.432522 -38.322649 10.948830 11.806939 9.678316 45.963804 -8.093424 5.185795 150.626901 -38.259397 -169.363996 26.733514 -20.987062 41.735946 2.764473 -38.426769 5.470700 -82.867847 79.496132 -75.820628 4.021816 7.046910 -20.123562 -0.017303 0.016063 -0.007858 -15.385341 -38.279733 2.449930 89.854802 85.533313 81.793337 -7.406650 -16.862412 -2.084581 -0.032857 -0.001332 -0.014918
-0.961873 127.457758 42.690062 167.293951 -43.868341 -2.855225 4.251896 14.948715 3.556155 0.300398 1.529058 0.297031 0.687062 2.361286 0.492282 3.723098 13.293808 3.107852 -5.215087 24.972214 -0.427239 -5.584521 1.502192 0.708163 -2.135337 9.933284 -9.334886 -36.172363 -20.700429 -14.316568 -131.428662 -46.288514 139.473315 -25.961245 -24.296520 -38.323728 11.063234 11.918312 9.780745 45.813411 -7.906839 5.160524 151.082298 -38.094817 -169.959510 26.826148 -20.724607 40.816918 2.743416 -38.352393 5.480981 -82.983420 79.488407 -75.939584 3.977754 7.042667 -20.123847 -0.010650 0.004385 -0.004836 -15.386238 -38.188742 2.495403 89.575741 85.599873 81.472969 -7.470860 -16.807374 -2.088311 -0.006164 0.000850 -0.002799
-0.963786 127.457975 42.703906 167.340726 -43.949548 -2.863811 4.274837 14.956455 3.557956 0.308286 1.523849 0.286367 0.654113 2.405224 0.498476 3.769103 13.276717 3.100078 -5.281242 25.009726 -0.405328 -5.676509 1.499220 0.697133 -2.239215 9.992626 -9.348441 -36.158235 -20.313477 -14.326816 -131.406121 -46.176682 139.610831 -26.100876 -24.102582 -38.119768 11.169633 12.027255 9.857434 45.611922 -7.682660 5.133447 151.457820 -37.872436 -170.555006 26.935327 -20.485395 39.802473 2.733488 -38.278935 5.467695 -83.105730 79.481373 -76.069247 4.046913 7.045703 -20.142321 0.000839 -0.005233 0.000381 -15.380992 -38.108244 2.479363 89.332108 85.634463 81.203923 -7.484058 -16.756729 -2.113060 -0.007241 0.001634 -0.003288
-0.967649 127.457497 42.717072 167.389145 -44.021636 -2.858866 4.283506 14.964297 3.549781 0.319785 1.520858 0.277889 0.624187 2.442079 0.496941 3.788502 13.273603 3.099692 -5.325543 25.011985 -0.424637 -5.749952 1.539614 0.692833 -2.412948 10.040749 -9.442708 -36.063657 -19.899366 -14.287284 -131.329578 -45.999592 139.863284 -26.288713 -23.851921 -37.779519 11.266778 12.120191 9.896721 45.388480 -7.422321 5.107027 151.704389 -37.592690 -171.136389 27.042553 -20.251248 38.731050 2.730738 -38.208427 5.432795 -83.281150 79.491222 -76.269625 4.014131 7.005988 -20.114860 -0.011356 0.006145 -0.005156 -15.365147 -38.036243 2.448467 89.076542 85.675090 80.930902 -7.508538 -16.727175 -2.141288 -0.000222 0.004407 -0.000101
-0.968519 127.452402 42.735197 167.406758 -44.051495 -2.851711 4.289211 14.963889 3.546058 0.378492 1.449632 0.297090 0.598495 2.486295 0.483828 3.745619 13.320432 3.094575 -5.364204 24.992647 -0.490278 -5.799301 1.589556 0.700664 -2.592629 10.072403 -9.547713 -35.957681 -19.495962 -14.245754 -131.184676 -45.764070 140.225621 -26.528609 -23.545160 -37.327978 11.357148 12.195442 9.902076 45.179067 -7.129614 5.070144 151.794842 -37.265162 -171.698831 27.140769 -20.029462 37.629815 2.738168 -38.190813 5.423032 -83.418761 79.488821 -76.421765 3.976536 6.984731 -20.093947 -0.018425 0.014656 -0.008367 -15.348607 -38.003934 2.446626 88.871440 85.707954 80.717168 -7.553464 -16.717555 -2.163388 0.001980 0.009117 0.000899
-0.976092 127.457501 42.739427 167.476231 -44.156820 -2.825547 4.244354 15.047341 3.491590 0.402004 1.416930 0.310368 0.593946 2.498779 0.478723 3.742934 13.335025 3.087326 -5.419945 25.018713 -0.516700 -5.819885 1.606823 0.695091 -2.785009 10.155765 -9.632230 -35.888748 -19.113407 -14.207384 -130.999350 -45.477845 140.704791 -26.817449 -23.188774 -36.778880 11.384266 12.297952 9.898014 45.023063 -6.806937 5.018647 151.731750 -36.901566 -172.236465 27.259622 -19.841728 36.511360 2.757819 -38.103265 5.361383 -83.626010 79.469881 -76.645848 3.918208 6.979295 -20.072625 -0.016478 0.001294 -0.007482 -15.309663 -37.911320 2.330561 88.631795 85.714110 80.465227 -7.611741 -16.709422 -2.171461 -0.001193 0.004672 -0.000542
-0.984465 127.458550 42.746934 167.528829 -44.222888 -2.786710 4.220046 15.068719 3.446077 0.398452 1.424546 0.306624 0.596381 2.498152 0.479703 3.750335 13.325475 3.065230 -5.462155 25.069503 -0.509766 -5.848993 1.619001 0.674121 -2.973125 10.298595 -9.696724 -35.818543 -18.737167 -14.162498 -130.838900 -45.154114 141.307899 -27.137205 -22.789053 -36.161409 11.375767 12.416614 9.896961 44.937936 -6.455697 4.960398 151.557288 -36.507113 -172.759588 27.426928 -19.691184 35.406084 2.781881 -38.040041 5.277409 -83.715977 79.470941 -76.757171 3.974135 6.975497 -20.061914 -0.023971 0.000100 -0.010884 -15.266498 -37.859254 2.233547 88.447008 85.746561 80.248011 -7.626978 -16.718752 -2.147360 -0.018470 0.003756 -0.008387
